<svg width="1440" height="1024" viewBox="0 0 1440 1024" fill="none" xmlns="http://www.w3.org/2000/svg">
<g clip-path="url(#clip0)">
<line x1="378" y1="407.5" x2="1065" y2="407.5" stroke="#DDDDDD"/>
<path d="M1095.21 131.211C1032.99 89.2285 964.777 12.1203 692 -1.41275L964.777 -258L1442.68 -134.037C1497.7 15.3683 1564.98 276.472 1392.34 291.443C1205.08 307.683 1186.68 192.922 1095.21 131.211Z" fill="url(#paint0_linear)" fill-opacity="0.31"/>
<path d="M1114.21 107.211C1051.99 65.2285 983.777 -11.8797 711 -25.4128L983.777 -282L1461.68 -158.037C1516.7 -8.63174 1583.98 252.472 1411.34 267.443C1224.08 283.683 1205.68 168.922 1114.21 107.211Z" fill="url(#paint1_linear)" fill-opacity="0.68"/>
<path d="M331.026 778.103C58.5002 764.5 0.500013 545.5 0.500015 440L-126.596 1029.45L909.147 1182.97C911.803 1139.31 900.04 1031.05 831.742 947.224C746.37 842.439 542.365 788.652 331.026 778.103Z" fill="url(#paint2_linear)" fill-opacity="0.52"/>
<path d="M302.026 802.103C29.5002 788.5 -28.5 569.5 -28.5 464L-155.596 1053.45L880.147 1206.97C882.803 1163.31 871.04 1055.05 802.742 971.224C717.37 866.439 513.365 812.652 302.026 802.103Z" fill="url(#paint3_linear)" fill-opacity="0.61"/>
</g>
<defs>
<linearGradient id="paint0_linear" x1="1097.5" y1="-258" x2="1097.5" y2="293" gradientUnits="userSpaceOnUse">
<stop stop-color="#D8C7C3"/>
<stop offset="1" stop-color="#FFEEEB" stop-opacity="0.15"/>
</linearGradient>
<linearGradient id="paint1_linear" x1="1116.5" y1="-282" x2="1116.5" y2="269" gradientUnits="userSpaceOnUse">
<stop stop-color="#D8C7C3"/>
<stop offset="1" stop-color="#FFEEEB" stop-opacity="0.15"/>
</linearGradient>
<linearGradient id="paint2_linear" x1="1130.45" y1="1178.84" x2="-94.4635" y2="343.085" gradientUnits="userSpaceOnUse">
<stop stop-color="#F4E4E0" stop-opacity="0.69"/>
<stop offset="1" stop-color="#FFEEEB" stop-opacity="0.15"/>
</linearGradient>
<linearGradient id="paint3_linear" x1="1101.45" y1="1202.84" x2="-123.463" y2="367.085" gradientUnits="userSpaceOnUse">
<stop stop-color="#F4E4E0" stop-opacity="0.68"/>
<stop offset="1" stop-color="#FFEEEB" stop-opacity="0.15"/>
</linearGradient>
<clipPath id="clip0">
<rect width="1440" height="1024" fill="white"/>
</clipPath>
</defs>
</svg>
