<svg width="35" height="40" viewBox="0 0 35 40" fill="none" xmlns="http://www.w3.org/2000/svg">
<path d="M33.8333 4.67422H1.16667C0.857247 4.67422 0.560501 4.79733 0.341709 5.01648C0.122917 5.23563 0 5.53286 0 5.84278C0 6.1527 0.122917 6.44993 0.341709 6.66908C0.560501 6.88823 0.857247 7.01134 1.16667 7.01134H4.66667V33.8883C4.66667 34.6556 4.81755 35.4154 5.1107 36.1243C5.40385 36.8331 5.83354 37.4773 6.37521 38.0198C6.91689 38.5624 7.55995 38.9927 8.26768 39.2864C8.97541 39.58 9.73396 39.7311 10.5 39.7311H24.5C25.266 39.7311 26.0246 39.58 26.7323 39.2864C27.4401 38.9927 28.0831 38.5624 28.6248 38.0198C29.1665 37.4773 29.5961 36.8331 29.8893 36.1243C30.1824 35.4154 30.3333 34.6556 30.3333 33.8883V7.01134H33.8333C34.1428 7.01134 34.4395 6.88823 34.6583 6.66908C34.8771 6.44993 35 6.1527 35 5.84278C35 5.53286 34.8771 5.23563 34.6583 5.01648C34.4395 4.79733 34.1428 4.67422 33.8333 4.67422ZM28 33.8883C28 34.8181 27.6312 35.7098 26.9749 36.3672C26.3185 37.0247 25.4283 37.394 24.5 37.394H10.5C9.57174 37.394 8.6815 37.0247 8.02513 36.3672C7.36875 35.7098 7 34.8181 7 33.8883V7.01134H28V33.8883Z" fill="white"/>
<path d="M12.8333 2.33713H22.1667C22.4761 2.33713 22.7728 2.21401 22.9916 1.99486C23.2104 1.77571 23.3333 1.47849 23.3333 1.16856C23.3333 0.858641 23.2104 0.561413 22.9916 0.342265C22.7728 0.123116 22.4761 0 22.1667 0H12.8333C12.5239 0 12.2272 0.123116 12.0084 0.342265C11.7896 0.561413 11.6667 0.858641 11.6667 1.16856C11.6667 1.47849 11.7896 1.77571 12.0084 1.99486C12.2272 2.21401 12.5239 2.33713 12.8333 2.33713Z" fill="white"/>
<path d="M14 30.3827C14.3095 30.3827 14.6062 30.2596 14.825 30.0404C15.0438 29.8213 15.1667 29.524 15.1667 29.2141V15.1913C15.1667 14.8814 15.0438 14.5842 14.825 14.365C14.6062 14.1459 14.3095 14.0228 14 14.0228C13.6906 14.0228 13.3939 14.1459 13.1751 14.365C12.9563 14.5842 12.8334 14.8814 12.8334 15.1913V29.2141C12.8334 29.524 12.9563 29.8213 13.1751 30.0404C13.3939 30.2596 13.6906 30.3827 14 30.3827Z" fill="white"/>
<path d="M21 30.3827C21.3094 30.3827 21.6062 30.2596 21.825 30.0404C22.0438 29.8213 22.1667 29.524 22.1667 29.2141V15.1913C22.1667 14.8814 22.0438 14.5842 21.825 14.365C21.6062 14.1459 21.3094 14.0228 21 14.0228C20.6906 14.0228 20.3939 14.1459 20.1751 14.365C19.9563 14.5842 19.8334 14.8814 19.8334 15.1913V29.2141C19.8334 29.524 19.9563 29.8213 20.1751 30.0404C20.3939 30.2596 20.6906 30.3827 21 30.3827Z" fill="white"/>
</svg>
