<svg width="37" height="37" viewBox="0 0 37 37" fill="none" xmlns="http://www.w3.org/2000/svg">
<path d="M34.1495 23.1029C33.6405 23.1029 33.228 23.5154 33.228 24.0244V32.2062C33.2262 33.7324 31.9898 34.9692 30.4636 34.9707H4.60745C3.08124 34.9692 1.84478 33.7324 1.84298 32.2062V8.19309C1.84478 6.66723 3.08124 5.43042 4.60745 5.42862H12.7893C13.2983 5.42862 13.7108 5.01611 13.7108 4.50713C13.7108 3.99851 13.2983 3.58564 12.7893 3.58564H4.60745C2.064 3.58852 0.00287966 5.64963 0 8.19309V32.2066C0.00287966 34.75 2.064 36.8111 4.60745 36.814H30.4636C33.007 36.8111 35.0681 34.75 35.071 32.2066V24.0244C35.071 23.5154 34.6585 23.1029 34.1495 23.1029Z" fill="white"/>
<path d="M34.706 1.21459C33.0866 -0.404862 30.4611 -0.404862 28.8416 1.21459L12.4016 17.6546C12.289 17.7672 12.2076 17.9069 12.1651 18.0602L10.0032 25.8652C9.91433 26.1852 10.0047 26.5279 10.2394 26.7629C10.4744 26.9976 10.8171 27.088 11.1371 26.9994L18.9421 24.8372C19.0954 24.7947 19.2351 24.7133 19.3477 24.6007L35.7873 8.16032C37.4043 6.5398 37.4043 3.91643 35.7873 2.2959L34.706 1.21459ZM14.4095 18.2535L27.8643 4.79832L32.2036 9.13761L18.7484 22.5928L14.4095 18.2535ZM13.5427 19.9928L17.0094 23.46L12.2141 24.7886L13.5427 19.9928ZM34.4843 6.85728L33.507 7.83456L29.1674 3.49492L30.145 2.51763C31.0445 1.6181 32.5031 1.6181 33.4026 2.51763L34.4843 3.59894C35.3824 4.49956 35.3824 5.95703 34.4843 6.85728Z" fill="white"/>
</svg>
