<svg width="43" height="32" viewBox="0 0 43 32" fill="none" xmlns="http://www.w3.org/2000/svg">
<path d="M0.717562 18.5559C-0.239187 17.5657 -0.239187 16.0805 0.717562 15.2141C1.67162 14.3477 3.10672 14.2239 4.06078 15.2141L14.0475 25.1963C14.2061 25.3551 14.4427 25.3712 14.612 25.2044L38.9392 0.741141C39.1508 0.50773 39.4088 0.321216 39.6967 0.193578C39.9846 0.0659411 40.2959 0 40.6108 0C40.9256 0 41.2371 0.0659411 41.5249 0.193578C41.8128 0.321216 42.0708 0.50773 42.2824 0.741141C43.2392 1.7313 43.2392 3.21652 42.2824 4.08022L14.8162 31.7965C14.7531 31.8609 14.6779 31.9121 14.5948 31.9471C14.5118 31.982 14.4226 32 14.3325 32C14.2424 32 14.1532 31.982 14.0701 31.9471C13.987 31.9121 13.9118 31.8609 13.8487 31.7965L0.717562 18.5559Z" fill="#49C02B"/>
</svg>
