<svg width="32" height="32" viewBox="0 0 32 32" fill="none" xmlns="http://www.w3.org/2000/svg">
<path d="M29.5348 19.9809C29.0946 19.9809 28.7378 20.3377 28.7378 20.7779V27.8541C28.7363 29.174 27.6669 30.2437 26.3469 30.245H3.98484C2.66486 30.2437 1.59549 29.174 1.59393 27.8541V7.08592C1.59549 5.76625 2.66486 4.69657 3.98484 4.69502H11.061C11.5012 4.69502 11.858 4.33825 11.858 3.89805C11.858 3.45816 11.5012 3.10108 11.061 3.10108H3.98484C1.78508 3.10357 0.00249052 4.88616 0 7.08592V27.8544C0.00249052 30.0541 1.78508 31.8367 3.98484 31.8392H26.3469C28.5467 31.8367 30.3293 30.0541 30.3318 27.8544V20.7779C30.3318 20.3377 29.975 19.9809 29.5348 19.9809Z" fill="#222222"/>
<path d="M30.0159 1.05046C28.6153 -0.350152 26.3445 -0.350152 24.9439 1.05046L10.7255 15.2688C10.6281 15.3663 10.5577 15.4871 10.521 15.6197L8.65122 22.3699C8.57433 22.6467 8.65247 22.9431 8.85545 23.1464C9.05873 23.3493 9.35511 23.4275 9.63187 23.3509L16.3821 21.4808C16.5147 21.4441 16.6355 21.3737 16.733 21.2763L30.951 7.0576C32.3495 5.65605 32.3495 3.38719 30.951 1.98565L30.0159 1.05046ZM12.462 15.7869L24.0987 4.14991L27.8516 7.90282L16.2146 19.5398L12.462 15.7869ZM11.7124 17.2912L14.7107 20.2897L10.5633 21.4388L11.7124 17.2912ZM29.8241 5.93063L28.9789 6.77586L25.2257 3.02264L26.0712 2.17742C26.8492 1.39944 28.1106 1.39944 28.8886 2.17742L29.8241 3.11261C30.6008 3.89152 30.6008 5.15203 29.8241 5.93063Z" fill="#222222"/>
</svg>
